<svg width="129" height="154" viewBox="0 0 129 154" fill="none" xmlns="http://www.w3.org/2000/svg">
<path d="M25.0634 0.610174C24.5395 0.610174 24.1099 1.03741 24.1099 1.55856C24.1099 1.87455 24.2703 2.14938 24.51 2.32065L24.4419 3.015L24.2461 3.00655L24.3483 3.22671L24.2206 3.39607L24.3993 3.42994L24.3398 4.08195L24.1354 4.06502L24.2376 4.29365L24.1099 4.45453L24.1014 4.46298L24.2973 4.49685L24.2377 5.1404L24.0674 5.13195L24.1696 5.35211L24.0333 5.52146L24.1951 5.55533L24.1355 6.20735L23.9738 6.19041L24.0759 6.41904L23.9397 6.57993V6.58838L24.0929 6.61377L24.0333 7.26578L23.8631 7.25733L23.9652 7.47749L23.8376 7.64684L23.9908 7.68071L23.9482 8.17184L23.2671 10.7968H23.6843V14.3363V20.3654V55.7265H16.1414V46.3443H16.5841L15.8689 43.7024L15.8349 43.2112L16.0307 43.1774V43.1689L15.8944 43.008L15.9966 42.7794L15.8008 42.7963L15.7412 42.1443L15.92 42.1104L15.7923 41.9411L15.8944 41.7209L15.7157 41.7294L15.6561 41.0774L15.8349 41.052L15.8264 41.0435L15.6987 40.8826L15.8009 40.654L15.6306 40.671L15.571 40.0189L15.7583 39.9851L15.6221 39.8157L15.7243 39.5956L15.537 39.604L15.4859 38.9605L15.6902 38.9266L15.6818 38.9181L15.5541 38.7572L15.6562 38.5286L15.4519 38.5456L15.4008 37.8681C15.6417 37.697 15.801 37.4229 15.801 37.106V37.0976C15.7958 36.5802 15.3678 36.1577 14.8475 36.1577C14.3235 36.1577 13.9024 36.5849 13.9024 37.1061C13.9024 37.422 14.063 37.6969 14.3026 37.8682L14.2345 38.5625L14.0387 38.5456L14.1408 38.7742L14.0046 38.9351V38.9435L14.1919 38.9774L14.1323 39.6294L13.928 39.6125L14.0302 39.8411L13.894 40.002V40.0105L14.0897 40.0443L14.0302 40.6879L13.8514 40.6794L13.9535 40.8996L13.8259 41.0605L13.8174 41.0689L13.9877 41.1028L13.9281 41.7548L13.7578 41.7379L13.86 41.9665L13.7323 42.1274L13.7238 42.1358L13.8856 42.1612L13.826 42.8132L13.6557 42.8048L13.7579 43.0249L13.6217 43.1943L13.7834 43.2282L13.7323 43.7193L13.0597 46.3443H13.4769V55.7265V55.9128V73.9321H5.72963V64.5075H6.17233L5.46571 61.8656L5.42314 61.3745L5.61898 61.3321L5.49125 61.1628L5.59341 60.9426L5.38909 60.9596L5.338 60.3075L5.51682 60.2737L5.50837 60.2652L5.38067 60.1043L5.48283 59.8757L5.30405 59.8926L5.25297 59.2406L5.42324 59.2068L5.28702 59.0374L5.38919 58.8172L5.21892 58.8257L5.16783 58.1822L5.35513 58.1483L5.34668 58.1398L5.21895 57.9789L5.32111 57.7503L5.13381 57.7672L5.08273 57.1152L5.27858 57.0814L5.14236 56.912L5.24452 56.6918L5.04868 56.7003L4.98908 56.0314C5.22997 55.8602 5.38922 55.5777 5.38922 55.2608V55.2523C5.38404 54.7349 4.96451 54.3209 4.44422 54.3209C3.92036 54.3209 3.49071 54.7397 3.49071 55.2608C3.49071 55.5768 3.65113 55.8601 3.89084 56.0314L3.82274 56.7257L3.62693 56.7088L3.72909 56.9374L3.60138 57.0983L3.59294 57.1068L3.78027 57.1406L3.72067 57.7842L3.51635 57.7672L3.61851 57.9959L3.49078 58.1567L3.48233 58.1652L3.67817 58.1991L3.61854 58.8511L3.44827 58.8342L3.55044 59.0628L3.41422 59.2237L3.40577 59.2321L3.57604 59.2575L3.51645 59.9095L3.35469 59.9011L3.45685 60.1212L3.32064 60.2906L3.47388 60.3245L3.41429 60.9765L3.24402 60.9595L3.34618 61.1882L3.21848 61.349L3.21003 61.3575L3.37179 61.3829L3.32922 61.874L2.64814 64.5075H3.0653V74.0675H3.07375V90.2155H1.62645V118.955H0.664429V153.063H0.672876H5.85759H6.58124V149.837L6.14702 149.422H5.85759V143.156C6.13212 143.025 6.31729 142.751 6.31729 142.427V140.412C6.31729 140.146 6.19146 139.908 5.99381 139.76C6.74839 132.702 8.4252 131.324 13.1281 128.676C17.7547 131.419 19.2951 132.645 20.024 139.701C19.7775 139.84 19.6069 140.109 19.6069 140.412V142.427C19.6069 142.772 19.8235 143.062 20.1262 143.181V149.422H19.7857L19.3515 149.837V153.063H20.1262H24.5447H25.2598V149.837L24.8257 149.422H24.5447V143.147C24.8147 143.015 25.0044 142.748 25.0044 142.427V140.412C25.0044 140.146 24.8786 139.908 24.6809 139.76C25.4355 132.702 27.1124 131.324 31.8152 128.676C36.4494 131.423 37.9921 132.649 38.7197 139.735C38.4988 139.88 38.3536 140.128 38.3536 140.412V142.427C38.3536 142.751 38.5388 143.025 38.8133 143.156V149.422H38.5239L38.0896 149.837V153.063H43.998V149.837L43.5639 149.422H43.1977V143.189C43.5163 143.079 43.7426 142.783 43.7426 142.427V140.412C43.7426 140.11 43.5785 139.849 43.334 139.709C44.0909 132.694 45.7766 131.318 50.4683 128.676C55.0809 131.41 56.6325 132.635 57.3642 139.633C57.0264 139.733 56.7853 140.043 56.7853 140.412V142.427C56.7853 142.833 57.0774 143.16 57.4664 143.223V149.422H56.9556L56.5214 149.837V153.063H62.4297V149.837L61.9955 149.422H61.34V143.24H61.3569C61.8097 143.24 62.1742 142.878 62.1742 142.427V140.412C62.1742 140.007 61.8821 139.679 61.4931 139.616C62.2554 132.686 63.9405 131.306 68.6104 128.676C73.2481 131.425 74.788 132.651 75.5148 139.752C75.3087 139.899 75.1743 140.139 75.1743 140.412V142.427C75.1743 142.74 75.349 143.003 75.6085 143.139V149.422H75.3531L74.9189 149.837V153.063H80.8187V149.837L80.8018 149.82V118.955H79.8398V90.2155H78.3925V74.0675V73.932V64.5075H78.8352L78.1286 61.8656L78.086 61.3744L78.2819 61.3321L78.1542 61.1627L78.2563 60.9426L78.052 60.9595L78.0009 60.3075L78.1797 60.2736V60.2652L78.0435 60.1043L78.1456 59.8757L77.9669 59.8926L77.9158 59.2406L78.086 59.2067L77.9498 59.0374L78.052 58.8172L77.8817 58.8256L77.8306 58.1821L78.0179 58.1482L78.0096 58.1398L77.8819 57.9789L77.984 57.7503L77.7967 57.7672L77.7456 57.1152L77.9415 57.0813L77.8052 56.912L77.9074 56.6918L77.7116 56.7002L77.6604 56.0313C77.9013 55.8602 78.0521 55.5776 78.0521 55.2607V55.2523C78.047 54.7348 77.6274 54.3208 77.1071 54.3208C76.5831 54.3208 76.1621 54.7396 76.1621 55.2608C76.1621 55.5767 76.3139 55.86 76.5537 56.0313L76.4856 56.7257L76.2898 56.7087L76.392 56.9374L76.2642 57.0982L76.2558 57.1067L76.4517 57.1406L76.3835 57.7841L76.1792 57.7672L76.2814 57.9958L76.1536 58.1567L76.1452 58.1652L76.3495 58.199L76.2814 58.851L76.1111 58.8341L76.2133 59.0627L76.0771 59.2236V59.2321L76.2473 59.2575L76.1792 59.9095L76.0175 59.901L76.1196 60.1212L75.9834 60.2905L76.1452 60.3244L76.0771 60.9764L75.9068 60.9595L76.009 61.1881L75.8812 61.349L75.8728 61.3574L76.0431 61.3828L75.992 61.874L75.3109 64.5074H75.7281V73.932H67.9893V55.9127V55.7264V46.3442H68.432L67.7169 43.7023L67.6828 43.2111L67.8871 43.1773L67.8787 43.1688L67.7425 43.0079L67.8446 42.7793L67.6488 42.7962L67.5978 42.1442L67.768 42.1103L67.6403 41.941L67.7425 41.7208L67.5637 41.7293L67.5126 41.0773L67.6829 41.0519V41.0434L67.5467 40.8825L67.6488 40.6539L67.4786 40.6708L67.4275 40.0188L67.6063 39.985L67.4701 39.8156L67.5722 39.5954L67.3934 39.6039L67.3338 38.9603L67.5382 38.9265L67.5297 38.918L67.402 38.7571L67.5042 38.5285L67.3083 38.5454L67.2488 37.868C67.4897 37.6969 67.6488 37.4228 67.6488 37.1059V37.0975C67.6437 36.58 67.2242 36.1576 66.7039 36.1576C66.1799 36.1576 65.7504 36.5848 65.7504 37.106C65.7504 37.4219 65.9107 37.6968 66.1505 37.868L66.0824 38.5624L65.8866 38.5455L65.9888 38.7741L65.8526 38.935V38.9434L66.0398 38.9773L65.9802 39.6293L65.7759 39.6124L65.878 39.841L65.7418 40.0019V40.0103L65.9377 40.0442L65.878 40.6878L65.6993 40.6793L65.8015 40.8995L65.6737 41.0604L65.6653 41.0688L65.8355 41.1027L65.7844 41.7547L65.6142 41.7378L65.7163 41.9664L65.5801 42.1273V42.1357L65.7419 42.1611L65.6823 42.8131L65.512 42.8047L65.6142 43.0248L65.478 43.1942L65.6397 43.2281L65.5972 43.7192L64.9161 46.3442H65.3332V55.7264H57.7903V20.3652V14.3362V10.7967H58.233L57.5264 8.16327L57.4839 7.66367L57.6882 7.6298L57.6797 7.62134L57.5435 7.46046L57.6542 7.23183L57.4499 7.24876L57.3987 6.59675L57.569 6.56288L57.4414 6.39353L57.5435 6.17337L57.3647 6.1903L57.3137 5.53829L57.4839 5.50442V5.49597L57.3477 5.33508L57.4499 5.10645L57.2796 5.12339L57.2285 4.47137L57.4073 4.4375L57.2711 4.26815L57.3732 4.04799L57.1944 4.05644L57.1434 3.41289L57.3392 3.37902L57.3307 3.37057L57.203 3.20968L57.3052 2.98105L57.1094 2.99799L57.0498 2.32904C57.2908 2.15791 57.4499 1.87537 57.4499 1.55848V1.55002C57.4448 1.03259 57.0253 0.610107 56.5049 0.610107C55.9811 0.610107 55.5514 1.03734 55.5514 1.55849C55.5514 1.87448 55.7118 2.14932 55.9516 2.32059L55.8835 3.01494L55.6876 3.00648L55.7898 3.22664L55.6536 3.396L55.8409 3.42987L55.7813 4.08188L55.577 4.06495L55.6791 4.29357L55.5429 4.45446V4.46292L55.7387 4.49679L55.6791 5.14033L55.5003 5.13188L55.6025 5.35204L55.4748 5.52139L55.6366 5.55526L55.577 6.20728L55.4152 6.19034L55.5174 6.41897L55.3812 6.57986V6.58831L55.5344 6.6137L55.4748 7.26572L55.3045 7.25726L55.4067 7.47742L55.2705 7.64678L55.4322 7.68065L55.3897 8.17177L54.7086 10.7968H55.1258V16.25L51.6012 16.2246V15.8943C51.8051 15.7927 51.9417 15.6098 51.9417 15.4032C51.939 15.2001 51.8011 15.0215 51.6012 14.9206V14.6919C51.9412 14.574 52.1801 14.2964 52.1801 13.9806V13.9722C52.1763 13.6587 51.9393 13.3944 51.6012 13.2778V12.973L51.2266 12.5327L50.8435 12.973V13.2778C50.5034 13.3958 50.2645 13.6649 50.2645 13.9807C50.2645 14.2965 50.5032 14.574 50.8435 14.6919V14.9206C50.6388 15.0221 50.5029 15.1962 50.5029 15.4032C50.5029 15.6102 50.6388 15.7929 50.8435 15.8944V16.2246L47.3104 16.1992V10.7968H47.7531L47.0464 8.16335L47.0039 7.66375L47.2082 7.62988L47.1998 7.62143L47.072 7.46054L47.1742 7.23191L46.9699 7.24885L46.9188 6.59683L47.0976 6.56296L46.9614 6.39361L47.0635 6.17345L46.8847 6.19038L46.8336 5.53837L47.0124 5.5045L47.004 5.49604L46.8678 5.33516L46.9699 5.10653L46.7997 5.12346L46.7486 4.47145L46.9274 4.43758L46.7997 4.26823L46.9018 4.04806L46.7145 4.05652L46.6634 3.41297L46.8592 3.3791V3.37065L46.723 3.20976L46.8252 2.98113L46.6294 2.99807L46.5783 2.32912C46.819 2.15799 46.9699 1.87544 46.9699 1.55856V1.55011C46.9647 1.03267 46.5452 0.61019 46.0249 0.61019C45.5011 0.61019 45.0799 1.03742 45.0799 1.55857C45.0799 1.87456 45.2319 2.1494 45.4715 2.32067L45.4034 3.01502L45.2076 3.00657L45.3098 3.22673L45.1821 3.39608L45.3694 3.42995L45.3013 4.08196L45.097 4.06503L45.1991 4.29366L45.0714 4.45454L45.063 4.463L45.2673 4.49687L45.1992 5.14042L45.0289 5.13196L45.1311 5.35212L44.9949 5.52148L45.1651 5.55535L45.097 6.20736L44.9352 6.19042L45.0374 6.41905L44.9097 6.57994L44.9013 6.5884L45.063 6.61378L44.9949 7.2658L44.8247 7.25734L44.9268 7.4775L44.7991 7.64686L44.9609 7.68073L44.9098 8.17186L44.2287 10.7968H44.6459V14.3364H36.839V10.7968H37.2817L36.5666 8.16339L36.5325 7.66379L36.7283 7.62992V7.62147L36.5921 7.46058L36.6943 7.23195L36.4985 7.24889L36.4389 6.59688L36.6176 6.563L36.4814 6.39365L36.5921 6.17349L36.4133 6.19042L36.3537 5.53841L36.5325 5.50454L36.5241 5.49609L36.3964 5.3352L36.4986 5.10657L36.3197 5.12351L36.2687 4.47149L36.456 4.43762L36.3197 4.26827L36.4219 4.04811L36.2346 4.05656L36.1835 3.41302L36.3878 3.37914L36.3794 3.37069L36.2517 3.2098L36.3539 2.98117L36.1495 2.99811L36.0985 2.32916C36.3393 2.15803 36.4986 1.87549 36.4986 1.5586V1.55015C36.4931 1.03271 36.0653 0.610231 35.5451 0.610231C35.0209 0.610231 34.6001 1.03746 34.6001 1.55862C34.6001 1.8746 34.7521 2.14944 34.9917 2.32071L34.9321 3.01506L34.7363 3.00661L34.8385 3.22677L34.7023 3.39612L34.8895 3.42999L34.8299 4.08201L34.6256 4.06507L34.7278 4.2937L34.5916 4.45459V4.46304L34.7874 4.49691L34.7278 5.14046L34.549 5.132L34.6512 5.35216L34.5235 5.52152L34.6852 5.55539L34.6256 6.2074L34.4554 6.19047L34.5575 6.41909L34.4298 6.57998L34.4214 6.58844L34.5831 6.61382L34.5236 7.26584L34.3533 7.25739L34.4555 7.47755L34.3192 7.6469L34.481 7.68077L34.4299 8.1719L33.7573 10.7969H34.1745V16.2501L30.6414 16.2247V15.8945C30.8453 15.7928 30.9819 15.6099 30.9819 15.4033C30.9792 15.2002 30.8413 15.0216 30.6414 14.9207V14.692C30.9815 14.5741 31.2203 14.2966 31.2203 13.9808V13.9723C31.2165 13.6589 30.9796 13.3945 30.6414 13.278V12.9731L30.2668 12.5328L29.8837 12.9731V13.278C29.5437 13.3959 29.3048 13.665 29.3048 13.9808C29.3048 14.2966 29.5435 14.5742 29.8837 14.6921V14.9207C29.6791 15.0222 29.5431 15.1963 29.5431 15.4034C29.5431 15.6104 29.6791 15.793 29.8837 15.8945V16.2247L26.3591 16.1993V10.7969H26.8018L26.0952 8.16347L26.0526 7.66387L26.257 7.63L26.2485 7.62155L26.1208 7.46066L26.223 7.23204L26.0187 7.24897L25.9676 6.59696L26.1378 6.56309L26.0101 6.39373L26.1123 6.17357L25.9335 6.19051L25.8825 5.53849L26.0527 5.50462V5.49617L25.9165 5.33528L26.0187 5.10665L25.8484 5.12359L25.7973 4.47157L25.9761 4.4377L25.8484 4.26835L25.9506 4.04819L25.7632 4.05664L25.7122 3.4131L25.908 3.37923L25.8995 3.37077L25.7719 3.20989L25.874 2.98126L25.6782 2.99819L25.6186 2.32924C25.8597 2.15811 26.0187 1.87557 26.0187 1.55868V1.55023C26.0136 1.03279 25.5942 0.61031 25.0737 0.61031H25.0653L25.0634 0.610174ZM26.9449 17.3508C27.1548 17.3508 27.3365 17.5527 27.4046 17.8335H27.6089L27.5833 22.2537L26.3574 24.5061V17.825H26.4936C26.5632 17.5485 26.737 17.3508 26.9449 17.3508ZM29.1414 17.3508C29.3554 17.3508 29.5361 17.5611 29.6011 17.8504H29.882V18.0113L28.4092 20.7295L28.4261 17.842H28.69C28.7567 17.5572 28.9296 17.3508 29.1414 17.3508ZM31.3463 17.3508C31.5645 17.3508 31.7442 17.5694 31.8061 17.8674H32.0019L31.985 20.4754L30.6399 17.9944V17.8589H30.8868C30.9502 17.5652 31.1304 17.3508 31.3463 17.3508ZM33.5428 17.3508C33.7632 17.3508 33.9514 17.5728 34.0111 17.8758H34.1728V24.5061L32.7937 21.9657L32.8193 17.8758H33.0747C33.1343 17.5728 33.3224 17.3508 33.5428 17.3508ZM47.9306 17.3508C48.1406 17.3508 48.3223 17.5527 48.3904 17.8335H48.5947L48.5691 22.1859L47.3091 24.5061V17.825H47.4794C47.549 17.5485 47.7229 17.3508 47.9306 17.3508ZM50.1271 17.3508C50.3411 17.3508 50.522 17.5611 50.5869 17.8504H50.8423V17.9944L49.395 20.6617L49.4121 17.842H49.6761C49.7428 17.5572 49.9153 17.3508 50.1271 17.3508ZM52.3321 17.3508C52.5503 17.3508 52.7301 17.5694 52.7919 17.8674H52.9877L52.9705 20.5347L51.5998 18.0113V17.8589H51.8723C51.9357 17.5652 52.1162 17.3508 52.3321 17.3508ZM54.5286 17.3508C54.749 17.3508 54.9371 17.5728 54.9969 17.8758H55.1246V24.5061L53.7794 22.025L53.805 17.8758H54.0604C54.1201 17.5728 54.3081 17.3508 54.5286 17.3508ZM30.1374 61.8656C32.1286 63.0459 32.7239 63.5279 33.0065 66.8108V72.1962L27.1492 72.1793V67.0055C27.4307 63.5811 28.0799 63.0243 30.1374 61.8656ZM51.7106 61.8656C53.7012 63.0459 54.2971 63.5279 54.5797 66.8108V72.1962L48.7224 72.1793V67.0055C49.0039 63.5811 49.6526 63.0243 51.7106 61.8656ZM19.47 75.524C21.4611 76.7044 22.0565 77.1948 22.3391 80.4776V85.8631L16.4818 85.8462V80.6724C16.7636 77.248 17.4125 76.6828 19.47 75.524ZM30.5206 75.524C32.5116 76.7044 33.1066 77.1948 33.3896 80.4776V85.8631L27.5323 85.8462V80.6724C27.8137 77.248 28.463 76.6828 30.5206 75.524ZM52.0938 75.524C54.0848 76.7044 54.6887 77.1948 54.9713 80.4776V85.8631L49.1055 85.8462V80.6724C49.3875 77.248 50.0362 76.6828 52.0938 75.524ZM62.1141 75.524C64.1053 76.7044 64.7006 77.1948 64.9832 80.4776V85.8631L59.1259 85.8462V80.6724C59.4074 77.248 60.0566 76.6828 62.1141 75.524ZM13.1615 90.2578C16.6735 92.34 17.7366 93.2055 18.2355 98.9965V112.884L7.89169 112.85V99.3352C8.38836 93.2944 9.53182 92.3019 13.1615 90.2578ZM31.6954 90.2578C35.2076 92.34 36.271 93.2055 36.7695 98.9965V112.884L26.4256 112.85V99.3352C26.9223 93.2944 28.0658 92.3019 31.6954 90.2578ZM50.4847 90.2578C53.9967 92.34 55.0598 93.2055 55.5587 98.9965V112.884L45.2148 112.85V99.3352C45.7115 93.2944 46.855 92.3019 50.4847 90.2578ZM68.4993 90.2578C72.0115 92.34 73.0744 93.2055 73.5733 98.9965V112.884L63.2294 112.85V99.3352C63.726 93.2944 64.8696 92.3019 68.4993 90.2578Z" fill="black"/>
<path d="M24.9769 41.8547C24.9769 41.8547 24.3869 42.8401 23.6317 43.8616C23.2542 44.3723 22.8409 44.89 22.4399 45.2926C22.0389 45.6953 21.6419 45.9735 21.4012 46.0293C20.4567 46.2485 19.8878 46.2805 19.4006 46.3172C18.9133 46.354 18.4843 46.3968 17.9362 46.6559C17.111 47.0461 16.4885 47.8729 16.0463 48.595C15.604 49.3172 15.3481 49.9584 15.3481 49.9584L15.859 50.1531C15.859 50.1531 15.9535 49.9232 16.1144 49.6027C16.0934 49.7636 16.0803 49.9274 16.0803 50.0938V56.3599H16.7188V55.7587H16.9317V51.4063V51.3978C16.9317 51.3978 16.9085 50.9048 17.0764 50.4241C17.1348 50.2568 17.2141 50.0911 17.3233 49.9499C17.4809 49.9844 17.6072 50.0586 17.7063 50.1446C17.8529 50.2718 17.9488 50.3505 18.0128 50.5342C18.1066 50.8024 18.0962 55.8089 18.098 55.9365V56.0127V56.0212V56.0381V56.1313L18.4981 56.0974V55.9958C18.4981 55.9958 18.4981 55.9874 18.4981 55.9874V55.9111C18.5009 55.7856 18.4542 50.806 18.5492 50.5342C18.6133 50.3505 18.7177 50.2718 18.8642 50.1446C18.9741 50.0493 19.106 49.9801 19.2899 49.9499C19.3965 50.0911 19.4784 50.2568 19.5368 50.4241C19.6595 50.7754 19.6793 51.1291 19.6815 51.2962V51.3978V51.4063C19.6815 51.4069 19.6815 51.4233 19.6815 51.4233V55.7587H20.0987V51.4148C20.0987 51.4148 20.0986 51.4065 20.0987 51.4063V51.3047C20.1014 51.1404 20.1191 50.78 20.2434 50.4241C20.3016 50.2573 20.3816 50.0968 20.4903 49.9584C20.6469 49.993 20.7747 50.059 20.8734 50.1446C21.0199 50.2718 21.1158 50.3505 21.1799 50.5342C21.2736 50.8024 21.2633 55.8089 21.265 55.9365V56.0127V56.0212V56.0381V56.1313L21.6652 56.0974V55.9958C21.6652 55.9958 21.6651 55.9874 21.6652 55.9874V55.9111C21.6679 55.7856 21.6212 50.806 21.7162 50.5342C21.7803 50.3505 21.8847 50.2718 22.0312 50.1446C22.1394 50.0508 22.2689 49.9809 22.4484 49.9499C22.5583 50.0904 22.6443 50.2535 22.7038 50.4241C22.8717 50.9048 22.8485 51.3978 22.8485 51.3978V51.4063V55.7587H23.0699V56.343H23.7084V50.0938C23.7084 48.5152 22.7318 47.1589 21.3501 46.5882C21.4094 46.5753 21.4583 46.5687 21.5204 46.5543C21.9704 46.4499 22.3914 46.107 22.823 45.6737C23.2546 45.2403 23.6873 44.7071 24.0744 44.1833C24.8488 43.1359 25.4451 42.1342 25.4451 42.1342L24.9769 41.8547ZM19.5793 46.8846C19.6097 46.8816 19.6423 46.8867 19.673 46.8846C19.6665 47.1667 19.6457 47.8596 19.5368 48.1716C19.4528 48.4121 19.3285 48.6487 19.1366 48.8152C18.985 48.9467 18.7929 49.0423 18.5322 49.0777C18.5728 49.038 18.61 48.9965 18.6429 48.9507C18.7366 48.8198 18.7934 48.6425 18.728 48.468C18.6452 48.2473 18.6319 48.118 18.6429 48.0023C18.6538 47.8866 18.6922 47.7683 18.745 47.5789C18.7773 47.4631 18.9477 47.2557 19.1111 47.1047C19.1928 47.0292 19.2741 46.9631 19.3325 46.9184C19.4128 46.9044 19.4969 46.8925 19.5793 46.8846ZM20.1072 46.8846C20.2222 46.8922 20.3367 46.899 20.4477 46.9184C20.5074 46.9682 20.5847 47.0412 20.669 47.1217C20.8379 47.2825 21.0117 47.4981 21.0436 47.6128C21.0965 47.8022 21.1434 47.9289 21.1543 48.0446C21.1652 48.1604 21.1434 48.2811 21.0607 48.5019C20.9952 48.6764 21.052 48.8622 21.1458 48.993C21.1646 49.0193 21.1838 49.0456 21.2054 49.0692C20.969 49.0288 20.7942 48.9301 20.6521 48.8067C20.4602 48.6403 20.3273 48.4121 20.2434 48.1716C20.1338 47.8579 20.1138 47.1708 20.1072 46.8846ZM21.1117 47.1132C22.1877 47.5609 22.9559 48.5899 23.0699 49.8059V50.2208C22.9682 49.9551 22.8111 49.6869 22.5676 49.4757C22.3758 49.3092 22.133 49.1848 21.8354 49.1285C21.7851 49.1008 21.7327 49.0687 21.6822 49.0354C21.5705 48.9617 21.4735 48.8753 21.4182 48.7983C21.3631 48.7212 21.3445 48.6807 21.3672 48.6204C21.4604 48.3718 21.4939 48.1802 21.4779 48.0108C21.4618 47.8414 21.408 47.7048 21.3587 47.5281C21.3158 47.3747 21.2198 47.2368 21.1117 47.1132ZM18.6344 47.1301C18.5439 47.2396 18.4671 47.3615 18.43 47.4942C18.3807 47.6709 18.3268 47.8075 18.3108 47.9769C18.2948 48.1463 18.3283 48.3294 18.4215 48.5781C18.4441 48.6383 18.434 48.6873 18.3789 48.7644C18.3238 48.8415 18.2182 48.9279 18.1065 49.0015C18.0109 49.0645 17.9099 49.1127 17.8256 49.1539C17.5807 49.2186 17.3774 49.3327 17.2126 49.4757C16.9744 49.6824 16.8207 49.9437 16.7188 50.2039V49.8059C16.7188 49.8032 16.7185 49.8002 16.7188 49.7974C16.8345 48.5978 17.5782 47.584 18.6344 47.1301ZM19.8858 48.4087C19.9878 48.6642 20.1458 48.9172 20.3796 49.12C20.4569 49.1872 20.5484 49.2458 20.6435 49.2978C20.5494 49.3496 20.4563 49.4092 20.3796 49.4757C20.1458 49.6785 19.9878 49.9316 19.8858 50.187C19.7838 49.9325 19.6336 49.6778 19.4006 49.4757C19.3239 49.4092 19.2383 49.3496 19.1452 49.2978C19.2393 49.2458 19.3232 49.1872 19.4006 49.12C19.6336 48.9179 19.7838 48.6632 19.8858 48.4087ZM18.3108 49.5011C18.6194 49.5011 18.841 49.5788 19.0175 49.6958C18.8775 49.7468 18.7521 49.8202 18.6514 49.9075C18.4728 50.0625 18.3547 50.2544 18.2768 50.4495C18.1989 50.2551 18.0801 50.0619 17.9022 49.9075C17.8103 49.8278 17.7018 49.7627 17.5787 49.7128C17.7589 49.5858 17.9873 49.5011 18.3108 49.5011ZM21.4779 49.5095C21.7839 49.5095 22.0086 49.5805 22.1845 49.6958C22.0445 49.7468 21.9191 49.8202 21.8184 49.9075C21.6398 50.0624 21.5217 50.2544 21.4438 50.4495C21.3659 50.2551 21.2472 50.0619 21.0692 49.9075C20.9773 49.8278 20.8688 49.7627 20.7457 49.7128C20.9253 49.5875 21.1569 49.5095 21.4779 49.5095Z" fill="black"/>
<path d="M14.7832 60.0617C14.7832 60.0617 14.1799 61.047 13.4076 62.0685C13.0215 62.5793 12.599 63.0969 12.1888 63.4996C11.7788 63.9022 11.3729 64.1804 11.1268 64.2363C10.1609 64.4554 9.5792 64.4874 9.08092 64.5242C8.58264 64.5609 8.144 64.6038 7.58358 64.8629C6.73969 65.253 6.10312 66.0799 5.65088 66.802C5.19867 67.5241 4.93701 68.1653 4.93701 68.1653L5.45936 68.36C5.45936 68.36 5.55603 68.1301 5.72055 67.8096C5.69903 67.9705 5.68573 68.1343 5.68573 68.3008V74.5669H6.33865V73.9657H6.55627V69.6133V69.6049C6.55627 69.6049 6.53258 69.1119 6.70429 68.6311C6.76398 68.4638 6.8451 68.2982 6.95674 68.1569C7.11794 68.1914 7.24715 68.2657 7.34849 68.3516C7.49838 68.4788 7.59638 68.5576 7.6619 68.7412C7.75774 69.0095 7.74717 74.0159 7.74899 74.1436V74.2198V74.2282V74.245V74.3381L8.15814 74.3043V74.2027C8.15814 74.2027 8.15808 74.1943 8.15814 74.1943V74.118C8.16086 73.9925 8.11323 69.0129 8.21035 68.741C8.27592 68.5574 8.38262 68.4787 8.53243 68.3515C8.64487 68.2562 8.77969 68.187 8.96775 68.1568C9.07678 68.298 9.16051 68.4637 9.22023 68.631C9.34569 68.9823 9.36596 69.336 9.36822 69.5031V69.6047V69.6131C9.36827 69.6131 9.36822 69.6299 9.36822 69.6299V73.9654H9.79479V69.6215C9.79479 69.6215 9.79474 69.6131 9.79479 69.6131V69.5115C9.79752 69.3471 9.81575 68.9868 9.94278 68.6308C10.0023 68.464 10.0841 68.3036 10.1953 68.1651C10.3554 68.1998 10.4861 68.2658 10.587 68.3514C10.7369 68.4785 10.8349 68.5573 10.9004 68.7409C10.9962 69.0092 10.9857 74.0156 10.9875 74.1433V74.2195V74.2279V74.2447V74.3379L11.3966 74.304V74.2024C11.3966 74.2024 11.3966 74.194 11.3966 74.194V74.1178C11.3993 73.9923 11.3517 69.0126 11.4489 68.7408C11.5144 68.5571 11.6211 68.4784 11.771 68.3512C11.8816 68.2574 12.014 68.1875 12.1976 68.1565C12.3099 68.2971 12.3979 68.4601 12.4587 68.6307C12.6304 69.1115 12.6067 69.6045 12.6067 69.6045V69.6129V73.9653H12.8331V74.5495H13.486V68.3004C13.486 66.7218 12.4874 65.3654 11.0745 64.7947C11.1352 64.782 11.1851 64.7752 11.2486 64.7609C11.7088 64.6565 12.1393 64.3136 12.5806 63.8802C13.0219 63.4469 13.4645 62.9136 13.8604 62.3899C14.6522 61.3424 15.262 60.3407 15.262 60.3407L14.7832 60.0613V60.0617ZM9.26373 65.0915C9.29484 65.0885 9.32809 65.0942 9.35951 65.0915C9.35269 65.3736 9.33163 66.0666 9.22023 66.3786C9.13439 66.619 9.00722 66.8557 8.81102 67.0221C8.65603 67.1537 8.45955 67.2492 8.19292 67.2847C8.2345 67.2449 8.27256 67.2034 8.30613 67.1576C8.40197 67.0268 8.46013 66.8495 8.39319 66.675C8.30857 66.4542 8.29488 66.3249 8.30613 66.2092C8.3173 66.0935 8.35657 65.9752 8.41062 65.7859C8.44361 65.6701 8.61786 65.4627 8.78495 65.3117C8.8685 65.2361 8.95165 65.17 9.01128 65.1254C9.09345 65.1113 9.17944 65.0994 9.26373 65.0915ZM9.8035 65.0915C9.92109 65.0991 10.0383 65.1059 10.1518 65.1254C10.2128 65.1751 10.2918 65.2482 10.3781 65.3286C10.5507 65.4895 10.7284 65.7051 10.7611 65.8197C10.8152 66.0091 10.8631 66.1359 10.8743 66.2516C10.8855 66.3673 10.8631 66.4881 10.7786 66.7089C10.7116 66.8833 10.7696 67.0691 10.8656 67.2C10.8849 67.2262 10.9045 67.2525 10.9265 67.2762C10.6848 67.2358 10.506 67.137 10.3607 67.0137C10.1645 66.8472 10.0286 66.619 9.94278 66.3786C9.83076 66.0648 9.81029 65.3778 9.8035 65.0915ZM10.8307 65.3202C11.931 65.7678 12.7165 66.7968 12.8331 68.0129V68.4278C12.7291 68.162 12.5685 67.8939 12.3194 67.6826C12.1233 67.5162 11.875 67.3917 11.5708 67.3354C11.5193 67.3078 11.4657 67.2756 11.4141 67.2423C11.2998 67.1687 11.2007 67.0823 11.1442 67.0052C11.0878 66.9281 11.0688 66.8876 11.092 66.8274C11.1873 66.5787 11.2215 66.3872 11.2051 66.2177C11.1888 66.0483 11.1336 65.9117 11.0832 65.7351C11.0394 65.5816 10.9412 65.4438 10.8307 65.3202ZM8.29741 65.337C8.20495 65.4465 8.12634 65.5684 8.0885 65.7011C8.0381 65.8777 7.98296 66.0143 7.96662 66.1837C7.95027 66.3532 7.98429 66.5362 8.07975 66.7849C8.10291 66.8451 8.09256 66.8942 8.03622 66.9712C7.9798 67.0483 7.87188 67.1347 7.75767 67.2083C7.65992 67.2713 7.55666 67.3195 7.47041 67.3607C7.21996 67.4255 7.01212 67.5395 6.84357 67.6825C6.59996 67.8892 6.44285 68.1506 6.33865 68.4107V68.0128C6.33865 68.01 6.3384 68.0071 6.33865 68.0043C6.45694 66.8047 7.21741 65.7908 8.29741 65.337ZM9.57713 66.6156C9.68147 66.871 9.84295 67.124 10.0821 67.3269C10.1611 67.394 10.2546 67.4527 10.352 67.5047C10.2557 67.5564 10.1605 67.616 10.0821 67.6825C9.84295 67.8854 9.68147 68.1384 9.57713 68.3938C9.47287 68.1393 9.31916 67.8846 9.08092 67.6825C9.00254 67.616 8.91495 67.5564 8.81976 67.5047C8.91601 67.4527 9.00183 67.394 9.08092 67.3269C9.31916 67.1248 9.47287 66.8701 9.57713 66.6156ZM7.96662 67.7079C8.28218 67.7079 8.50868 67.7856 8.68917 67.9027C8.54601 67.9536 8.41785 68.027 8.31484 68.1144C8.13226 68.2693 8.01146 68.4612 7.9318 68.6563C7.85211 68.462 7.73071 68.2688 7.54873 68.1144C7.45479 68.0347 7.34379 67.9695 7.2179 67.9196C7.40217 67.7926 7.6358 67.7079 7.96662 67.7079ZM11.2051 67.7163C11.5181 67.7163 11.7479 67.7872 11.9277 67.9026C11.7846 67.9535 11.6563 68.0269 11.5533 68.1143C11.3707 68.2692 11.25 68.4611 11.1703 68.6562C11.0906 68.4619 10.9692 68.2687 10.7872 68.1143C10.6933 68.0346 10.5823 67.9694 10.4564 67.9195C10.6401 67.7943 10.8769 67.7163 11.2051 67.7163Z" fill="black"/>
<path d="M56.473 41.8551C56.473 41.8551 57.063 42.8405 57.8182 43.862C58.1958 44.3728 58.609 44.8904 59.0101 45.293C59.4111 45.6957 59.808 45.9739 60.0487 46.0297C60.9932 46.2489 61.5621 46.2809 62.0493 46.3176C62.5366 46.3544 62.9656 46.3972 63.5137 46.6563C64.3389 47.0465 64.9614 47.8733 65.4037 48.5954C65.8459 49.3176 66.1018 49.9588 66.1018 49.9588L65.591 50.1535C65.591 50.1535 65.4964 49.9236 65.3356 49.6031C65.3565 49.764 65.3696 49.9278 65.3696 50.0942V56.3603H64.7312V55.7591H64.5183V51.4067V51.3983C64.5183 51.3983 64.5414 50.9053 64.3735 50.4245C64.3151 50.2573 64.2358 50.0916 64.1266 49.9504C63.969 49.9849 63.8427 50.0591 63.7436 50.1451C63.597 50.2723 63.5012 50.351 63.4371 50.5346C63.3434 50.8029 63.3537 55.8093 63.3519 55.937V56.0132V56.0216V56.0384V56.1316L62.9518 56.0977V55.9961C62.9518 55.9961 62.9518 55.9877 62.9518 55.9877V55.9115C62.949 55.786 62.9957 50.8063 62.9007 50.5345C62.8366 50.3509 62.7323 50.2721 62.5858 50.145C62.4758 50.0496 62.3439 49.9804 62.16 49.9502C62.0534 50.0915 61.9715 50.2571 61.9131 50.4244C61.7904 50.7758 61.7707 51.1294 61.7685 51.2966V51.3982V51.4066C61.7684 51.4066 61.7685 51.4234 61.7685 51.4234V55.7589H61.3512V51.4149C61.3512 51.4149 61.3513 51.4065 61.3512 51.4065V51.3049C61.3485 51.1406 61.3308 50.7803 61.2065 50.4243C61.1483 50.2575 61.0683 50.097 60.9596 49.9586C60.803 49.9932 60.6752 50.0592 60.5766 50.1448C60.43 50.272 60.3342 50.3507 60.2701 50.5344C60.1764 50.8027 60.1867 55.8091 60.1849 55.9367V56.013V56.0214V56.0382V56.1313L59.7848 56.0975V55.9958C59.7848 55.9958 59.7848 55.9874 59.7848 55.9874V55.9112C59.782 55.7857 59.8287 50.8061 59.7337 50.5342C59.6696 50.3506 59.5653 50.2719 59.4187 50.1447C59.3105 50.0509 59.181 49.981 59.0015 49.95C58.8916 50.0905 58.8056 50.2536 58.7461 50.4241C58.5782 50.9049 58.6014 51.3979 58.6014 51.3979V51.4063V55.7587H58.38V56.343H57.7415V50.0938C57.7415 48.5152 58.7181 47.1589 60.0998 46.5882C60.0405 46.5754 59.9916 46.5687 59.9295 46.5543C59.4795 46.4499 59.0585 46.107 58.6269 45.6737C58.1953 45.2403 57.7627 44.7071 57.3755 44.1833C56.6011 43.1359 56.0048 42.1342 56.0048 42.1342L56.473 41.8547V41.8551ZM61.8706 46.885C61.8402 46.882 61.8076 46.8877 61.7769 46.885C61.7834 47.1671 61.8042 47.86 61.9131 48.1721C61.9971 48.4125 62.1215 48.6492 62.3133 48.8156C62.4649 48.9472 62.657 49.0427 62.9177 49.0781C62.8771 49.0384 62.8399 48.9969 62.807 48.9511C62.7133 48.8202 62.6565 48.6429 62.722 48.4684C62.8047 48.2477 62.818 48.1184 62.807 48.0027C62.7961 47.887 62.7577 47.7687 62.7049 47.5793C62.6726 47.4635 62.5022 47.2561 62.3388 47.1051C62.2571 47.0296 62.1758 46.9635 62.1174 46.9188C62.0371 46.9048 61.9531 46.8928 61.8706 46.885ZM61.3427 46.885C61.2278 46.8926 61.1132 46.8993 61.0022 46.9188C60.9425 46.9686 60.8652 47.0416 60.7809 47.1221C60.612 47.2829 60.4383 47.4985 60.4063 47.6132C60.3535 47.8026 60.3065 47.9294 60.2956 48.045C60.2847 48.1608 60.3065 48.2816 60.3892 48.5023C60.4547 48.6768 60.398 48.8626 60.3041 48.9934C60.2853 49.0197 60.2661 49.046 60.2445 49.0696C60.4809 49.0292 60.6557 48.9305 60.7979 48.8071C60.9897 48.6407 61.1226 48.4125 61.2065 48.1721C61.3161 47.8583 61.3361 47.1712 61.3427 46.885ZM60.3382 47.1136C59.2622 47.5613 58.494 48.5903 58.38 49.8063V50.2212C58.4818 49.9555 58.6388 49.6874 58.8823 49.4761C59.0741 49.3096 59.3169 49.1852 59.6145 49.1289C59.6648 49.1012 59.7172 49.0691 59.7677 49.0358C59.8794 48.9621 59.9765 48.8757 60.0317 48.7987C60.0869 48.7216 60.1054 48.6811 60.0827 48.6208C59.9895 48.3722 59.9561 48.1806 59.972 48.0112C59.9881 47.8418 60.042 47.7052 60.0912 47.5285C60.1341 47.3751 60.2302 47.2372 60.3382 47.1136ZM62.8156 47.1304C62.906 47.2399 62.9829 47.3618 63.0199 47.4945C63.0692 47.6712 63.1231 47.8078 63.1391 47.9772C63.1551 48.1466 63.1217 48.3297 63.0285 48.5784C63.0058 48.6386 63.0159 48.6876 63.071 48.7647C63.1262 48.8418 63.2317 48.9282 63.3434 49.0018C63.439 49.0648 63.54 49.113 63.6243 49.1542C63.8693 49.2189 64.0725 49.333 64.2373 49.476C64.4756 49.6827 64.6292 49.944 64.7312 50.2042V49.8062C64.7312 49.8035 64.7314 49.8005 64.7312 49.7978C64.6155 48.5982 63.8717 47.5843 62.8156 47.1304ZM61.5641 48.409C61.4621 48.6645 61.3041 48.9175 61.0703 49.1203C60.993 49.1874 60.9015 49.2461 60.8064 49.2981C60.9005 49.3499 60.9937 49.4095 61.0703 49.476C61.3041 49.6788 61.4621 49.9318 61.5641 50.1873C61.6661 49.9328 61.8164 49.6781 62.0493 49.476C62.126 49.4095 62.2117 49.3499 62.3047 49.2981C62.2106 49.2461 62.1267 49.1874 62.0493 49.1203C61.8164 48.9182 61.6661 48.6635 61.5641 48.409ZM63.1391 49.5014C62.8305 49.5014 62.609 49.5791 62.4324 49.6961C62.5725 49.7471 62.6978 49.8205 62.7985 49.9078C62.9771 50.0628 63.0952 50.2547 63.1731 50.4498C63.251 50.2554 63.3698 50.0622 63.5477 49.9078C63.6396 49.8281 63.7481 49.763 63.8712 49.7131C63.691 49.5861 63.4626 49.5014 63.1391 49.5014ZM59.972 49.5098C59.666 49.5098 59.4413 49.5807 59.2654 49.6961C59.4054 49.747 59.5308 49.8204 59.6315 49.9077C59.8101 50.0626 59.9282 50.2546 60.0061 50.4497C60.084 50.2553 60.2027 50.0622 60.3807 49.9077C60.4726 49.828 60.5811 49.7629 60.7042 49.713C60.5246 49.5878 60.293 49.5098 59.972 49.5098Z" fill="black"/>
<path d="M66.6833 60.0617C66.6833 60.0617 67.2866 61.047 68.0588 62.0685C68.4449 62.5793 68.8675 63.0969 69.2776 63.4996C69.6876 63.9022 70.0935 64.1804 70.3396 64.2363C71.3055 64.4554 71.8873 64.4874 72.3855 64.5242C72.8838 64.5609 73.3224 64.6038 73.8828 64.8629C74.7267 65.253 75.3633 66.0799 75.8155 66.802C76.2677 67.5241 76.5294 68.1653 76.5294 68.1653L76.0071 68.36C76.0071 68.36 75.9104 68.1301 75.7459 67.8096C75.7674 67.9705 75.7807 68.1343 75.7807 68.3008V74.5669H75.1278V73.9657H74.9102V69.6133V69.6049C74.9102 69.6049 74.9338 69.1119 74.7621 68.6311C74.7024 68.4638 74.6213 68.2982 74.5096 68.1569C74.3484 68.1914 74.2193 68.2657 74.118 68.3516C73.9681 68.4788 73.8701 68.5576 73.8046 68.7412C73.7087 69.0095 73.7193 74.0159 73.7174 74.1436V74.2198V74.2282V74.245V74.3381L73.3083 74.3043V74.2027C73.3083 74.2027 73.3084 74.1943 73.3083 74.1943V74.118C73.3056 73.9925 73.3532 69.0129 73.2561 68.741C73.1905 68.5574 73.0838 68.4787 72.934 68.3515C72.8216 68.2562 72.6867 68.187 72.4987 68.1568C72.3896 68.298 72.3059 68.4637 72.2462 68.631C72.1207 68.9823 72.1005 69.336 72.0982 69.5031V69.6047V69.6131C72.0981 69.6131 72.0982 69.6299 72.0982 69.6299V73.9654H71.6717V69.6215C71.6717 69.6215 71.6717 69.6131 71.6717 69.6131V69.5115C71.6689 69.3471 71.6506 68.9868 71.5236 68.6308C71.4641 68.464 71.3823 68.3036 71.2712 68.1651C71.111 68.1998 70.9803 68.2658 70.8794 68.3514C70.7295 68.4785 70.6316 68.5573 70.566 68.7409C70.4702 69.0092 70.4807 74.0156 70.4789 74.1433V74.2195V74.2279V74.2447V74.3379L70.0698 74.304V74.2024C70.0698 74.2024 70.0698 74.194 70.0698 74.194V74.1178C70.0671 73.9923 70.1147 69.0126 70.0175 68.7408C69.952 68.5571 69.8453 68.4784 69.6955 68.3512C69.5848 68.2574 69.4524 68.1875 69.2689 68.1565C69.1565 68.2971 69.0685 68.4601 69.0077 68.6307C68.836 69.1115 68.8597 69.6045 68.8597 69.6045V69.6129V73.9653H68.6333V74.5495H67.9805V68.3004C67.9805 66.7218 68.979 65.3654 70.3919 64.7947C70.3313 64.782 70.2813 64.7752 70.2178 64.7609C69.7576 64.6565 69.3272 64.3136 68.8858 63.8802C68.4445 63.4469 68.002 62.9136 67.6061 62.3899C66.8142 61.3424 66.2045 60.3407 66.2045 60.3407L66.6833 60.0613V60.0617ZM72.2027 65.0915C72.1716 65.0885 72.1383 65.0942 72.1069 65.0915C72.1137 65.3736 72.1348 66.0666 72.2462 66.3786C72.332 66.619 72.4592 66.8557 72.6554 67.0221C72.8104 67.1537 73.0068 67.2492 73.2735 67.2847C73.2319 67.2449 73.1939 67.2034 73.1603 67.1576C73.0645 67.0268 73.0063 66.8495 73.0733 66.675C73.1579 66.4542 73.1716 66.3249 73.1603 66.2092C73.1492 66.0935 73.1099 65.9752 73.0558 65.7859C73.0228 65.6701 72.8486 65.4627 72.6815 65.3117C72.598 65.2361 72.5148 65.17 72.4552 65.1254C72.373 65.1113 72.287 65.0994 72.2027 65.0915ZM71.6629 65.0915C71.5454 65.0991 71.4282 65.1059 71.3147 65.1254C71.2536 65.1751 71.1746 65.2482 71.0884 65.3286C70.9157 65.4895 70.738 65.7051 70.7053 65.8197C70.6513 66.0091 70.6033 66.1359 70.5921 66.2516C70.5809 66.3673 70.6033 66.4881 70.6879 66.7089C70.7549 66.8833 70.6968 67.0691 70.6008 67.2C70.5815 67.2262 70.562 67.2525 70.5399 67.2762C70.7816 67.2358 70.9604 67.137 71.1058 67.0137C71.302 66.8472 71.4378 66.619 71.5236 66.3786C71.6356 66.0648 71.6562 65.3778 71.6629 65.0915ZM70.6357 65.3202C69.5354 65.7678 68.7499 66.7968 68.6333 68.0129V68.4278C68.7374 68.162 68.898 67.8939 69.147 67.6826C69.3432 67.5162 69.5914 67.3917 69.8957 67.3354C69.9471 67.3078 70.0007 67.2756 70.0524 67.2423C70.1666 67.1687 70.2658 67.0823 70.3223 67.0052C70.3787 66.9281 70.3976 66.8876 70.3745 66.8274C70.2792 66.5787 70.245 66.3872 70.2613 66.2177C70.2777 66.0483 70.3328 65.9117 70.3832 65.7351C70.427 65.5816 70.5252 65.4438 70.6357 65.3202ZM73.169 65.337C73.2615 65.4465 73.3401 65.5684 73.378 65.7011C73.4284 65.8777 73.4835 66.0143 73.4998 66.1837C73.5161 66.3532 73.4821 66.5362 73.3867 66.7849C73.3635 66.8451 73.3738 66.8942 73.4302 66.9712C73.4866 67.0483 73.5946 67.1347 73.7088 67.2083C73.8065 67.2713 73.9098 67.3195 73.996 67.3607C74.2465 67.4255 74.4543 67.5395 74.6229 67.6825C74.8665 67.8892 75.0236 68.1506 75.1278 68.4107V68.0128C75.1278 68.01 75.1281 68.0071 75.1278 68.0043C75.0095 66.8047 74.249 65.7908 73.169 65.337ZM71.8893 66.6156C71.7849 66.871 71.6235 67.124 71.3843 67.3269C71.3053 67.394 71.2118 67.4527 71.1145 67.5047C71.2107 67.5564 71.306 67.616 71.3843 67.6825C71.6235 67.8854 71.7849 68.1384 71.8893 68.3938C71.9935 68.1393 72.1473 67.8846 72.3855 67.6825C72.4639 67.616 72.5515 67.5564 72.6467 67.5047C72.5504 67.4527 72.4646 67.394 72.3855 67.3269C72.1473 67.1248 71.9935 66.8701 71.8893 66.6156ZM73.4998 67.7079C73.1842 67.7079 72.9578 67.7856 72.7773 67.9027C72.9204 67.9536 73.0486 68.027 73.1516 68.1144C73.3342 68.2693 73.455 68.4612 73.5347 68.6563C73.6143 68.462 73.7357 68.2688 73.9177 68.1144C74.0116 68.0347 74.1226 67.9695 74.2485 67.9196C74.0642 67.7926 73.8306 67.7079 73.4998 67.7079ZM70.2613 67.7163C69.9484 67.7163 69.7186 67.7872 69.5387 67.9026C69.6819 67.9535 69.8101 68.0269 69.9131 68.1143C70.0957 68.2692 70.2164 68.4611 70.2961 68.6562C70.3758 68.4619 70.4972 68.2687 70.6792 68.1143C70.7731 68.0346 70.8841 67.9694 71.01 67.9195C70.8264 67.7943 70.5895 67.7163 70.2613 67.7163Z" fill="black"/>
<path d="M80.8593 34.3246C85.9856 38.6047 89.5326 44.3587 91.2852 50.3732C93.153 56.7834 93.0429 63.3133 91.0264 69.1713L95.428 70.3867C97.621 63.7651 97.7173 56.439 95.6252 49.2592C93.533 42.0789 89.4778 35.8177 83.9993 31.1656L80.8585 34.328L80.8593 34.3246Z" fill="black"/>
<path d="M89.7551 25.8035C96.4404 31.5702 101.074 39.2176 103.393 47.196C105.712 55.175 105.859 63.9752 103.222 72.138L107.62 73.3555C110.348 64.7898 110.414 55.3432 107.722 46.0829C105.03 36.8225 99.8643 28.721 92.8819 22.652L89.7547 25.8033L89.7551 25.8035Z" fill="black"/>
<path d="M98.6504 17.2256C106.825 24.516 112.539 34.0769 115.462 44.0305C118.384 53.9836 118.69 64.9318 115.642 75.1019L119.962 76.3398C123.088 65.8515 123.038 54.2945 119.705 42.9416C116.372 31.5886 110.104 21.6255 101.689 14.0993L98.6501 17.2257L98.6504 17.2256Z" fill="black"/>
</svg>
